<?xml version="1.0" encoding="UTF-8"?><svg id="Layer_1" xmlns="http://www.w3.org/2000/svg" viewBox="0 0 303.47 303.66"><defs><style>.cls-1{fill:#020202;}.cls-2{fill:#fff;}.cls-3{fill:#c2c1c0;}.cls-4{fill:#1a315b;}.cls-5{fill:#1b459c;}</style></defs><polyline class="cls-4" points="166.16 56.5 195.5 56.5 151.27 116.06 106.05 56.5 135.72 56.5 135.72 13.5 0 13.5 0 56.5 29.49 56.5 95.64 144.43 95.64 254.78 66.85 254.78 66.85 303.66 237.28 303.66 237.28 254.78 206.74 254.78 207.5 143.23 269.09 56.5 299.56 56.5 299.56 13.5 166.16 13.5"/><rect class="cls-3" x="124.57" y="176.84" width="13.85" height="13.85"/><circle cx="131.49" cy="183.76" r="4.32"/><rect class="cls-3" x="146.11" y="176.84" width="13.85" height="13.85"/><circle cx="153.03" cy="183.76" r="4.32"/><rect class="cls-3" x="166.86" y="176.84" width="13.85" height="13.85"/><circle cx="173.78" cy="183.76" r="4.32"/><rect class="cls-3" x="127.17" y="145.14" width="13.85" height="13.85"/><circle cx="134.1" cy="152.07" r="4.32"/><rect class="cls-3" x="162.54" y="145.14" width="13.85" height="13.85"/><circle cx="169.46" cy="152.07" r="4.32"/><rect class="cls-3" x="96.4" y="112.56" width="38.75" height="19.51" transform="translate(-49.98 92.45) rotate(-36.36)"/><rect class="cls-3" x="74.32" y="82.57" width="38.75" height="19.51" transform="translate(-36.5 73.53) rotate(-36.36)"/><rect x="83.61" y="85.56" width="18.17" height="13.55" transform="translate(-36.69 72.93) rotate(-36.36)"/><rect x="106.68" y="115.54" width="18.17" height="13.55" transform="translate(-49.98 92.45) rotate(-36.36)"/><rect class="cls-3" x="170.43" y="111.65" width="38.75" height="19.51" transform="translate(107.9 -88.49) rotate(36.08)"/><rect x="180.71" y="114.63" width="18.17" height="13.55" transform="translate(107.9 -88.49) rotate(36.08)"/><rect class="cls-3" x="45.89" y="16.99" width="44.75" height="42.56"/><rect class="cls-1" x="45.89" width="44.75" height="16.99"/><rect class="cls-3" x="230.14" y="21.64" width="29.39" height="29.39" transform="translate(61.83 -130.32) rotate(33.88)"/><circle cx="244.84" cy="36.34" r="9.92"/><rect class="cls-2" x="104.85" y="268.23" width="97.52" height="22.16"/><rect class="cls-3" x="66.87" y="267.39" width="23.09" height="24.56"/><rect class="cls-5" x="149.21" y="117.26" width="6.12" height="6.12"/><rect class="cls-5" x="167.49" y="48.19" width="6.12" height="6.12"/><rect class="cls-5" x="127.85" y="48.19" width="6.12" height="6.12"/><rect class="cls-5" x="127.85" y="15.32" width="6.12" height="6.12"/><rect class="cls-5" x="167.49" y="15.32" width="6.12" height="6.12"/><rect class="cls-5" x="1.6" y="14.44" width="6.12" height="6.12"/><rect class="cls-5" x=".84" y="49.23" width="6.12" height="6.12"/><rect class="cls-5" x="292.54" y="14.96" width="6.12" height="6.12"/><rect class="cls-5" x="292.54" y="48.95" width="6.12" height="6.12"/><rect class="cls-5" x="98.31" y="197.4" width="6.12" height="6.12"/><rect class="cls-5" x="200.89" y="196.57" width="6.12" height="6.12"/><rect class="cls-5" x="68.98" y="256.53" width="6.12" height="6.12"/><rect class="cls-5" x="68.98" y="296.39" width="6.12" height="6.12"/><rect class="cls-5" x="149.97" y="295.8" width="6.12" height="6.12"/><rect class="cls-5" x="229.29" y="295.8" width="6.12" height="6.12"/><rect class="cls-5" x="229.29" y="256.53" width="6.12" height="6.12"/><rect class="cls-5" x="233.84" y="91.55" width="6.12" height="6.12" transform="translate(101.16 -121.37) rotate(36.08)"/><rect class="cls-5" x="172.77" y="87.75" width="6.12" height="6.12" transform="translate(87.2 -86.13) rotate(36.08)"/><rect class="cls-5" x="124.5" y="89.13" width="6.12" height="6.12" transform="translate(-29.82 93.58) rotate(-36.36)"/><rect class="cls-5" x="62.6" y="93.81" width="6.12" height="6.12" transform="translate(-44.64 57.79) rotate(-36.36)"/></svg>