<?xml version="1.0" encoding="UTF-8"?>
<svg id="Layer_1" xmlns="http://www.w3.org/2000/svg" version="1.1" viewBox="0 0 303.5 303.7">
  <!-- Generator: Adobe Illustrator 29.6.1, SVG Export Plug-In . SVG Version: 2.1.1 Build 9)  -->
  <defs>
    <style>
      .st0 {
        fill: #2b2b2b;
      }

      .st1 {
        fill: #c2c1c0;
      }

      .st2 {
        fill: #1b459c;
      }

      .st3 {
        fill: #12243d;
      }

      .st4 {
        fill: #020202;
      }

      .st5 {
        fill: #fff;
      }

      .st6 {
        fill: #1a315b;
      }
    </style>
  </defs>
  <polyline class="st6" points="166.2 56.5 195.5 56.5 151.3 116.1 106.1 56.5 135.7 56.5 135.7 13.5 0 13.5 0 56.5 29.5 56.5 95.6 144.4 95.6 254.8 66.8 254.8 66.8 303.7 237.3 303.7 237.3 254.8 206.7 254.8 207.5 143.2 269.1 56.5 299.6 56.5 299.6 13.5 166.2 13.5"/>
  <rect class="st1" x="124.6" y="176.8" width="13.8" height="13.9"/>
  <circle cx="131.5" cy="183.8" r="4.3"/>
  <rect class="st1" x="146.1" y="176.8" width="13.9" height="13.9"/>
  <circle cx="153" cy="183.8" r="4.3"/>
  <rect class="st1" x="166.9" y="176.8" width="13.9" height="13.9"/>
  <circle cx="173.8" cy="183.8" r="4.3"/>
  <rect class="st1" x="146.1" y="156.4" width="13.9" height="13.9"/>
  <circle cx="153" cy="163.3" r="4.3"/>
  <rect class="st1" x="146.1" y="197.3" width="13.9" height="13.9"/>
  <circle cx="153" cy="204.2" r="4.3"/>
  <rect class="st1" x="45.9" y="17" width="44.8" height="42.6"/>
  <rect class="st4" x="45.9" width="44.8" height="17"/>
  <rect class="st1" x="195" y="264" width="29.4" height="29.4" transform="translate(-70.1 486.9) rotate(-89.7)"/>
  <circle cx="209.7" cy="278.6" r="9.9"/>
  <rect class="st1" x="66.9" y="267.4" width="23.1" height="24.6"/>
  <rect class="st2" x="149.2" y="117.3" width="6.1" height="6.1"/>
  <rect class="st2" x="168.5" y="47.8" width="6.1" height="6.1"/>
  <rect class="st2" x="127.8" y="48.2" width="6.1" height="6.1"/>
  <rect class="st2" x="127.8" y="15.3" width="6.1" height="6.1"/>
  <rect class="st2" x="168.5" y="15.3" width="6.1" height="6.1"/>
  <rect class="st2" x="1.6" y="15.3" width="6.1" height="6.1"/>
  <rect class="st2" x=".8" y="49.2" width="6.1" height="6.1"/>
  <rect class="st2" x="290.7" y="15.3" width="6.1" height="6.1"/>
  <rect class="st2" x="290.7" y="47.8" width="6.1" height="6.1"/>
  <rect class="st2" x="98.3" y="194.3" width="6.1" height="6.1"/>
  <rect class="st2" x="198.8" y="194.3" width="6.1" height="6.1"/>
  <rect class="st2" x="69" y="256.5" width="6.1" height="6.1"/>
  <rect class="st2" x="69" y="296.4" width="6.1" height="6.1"/>
  <rect class="st2" x="176.6" y="295.8" width="6.1" height="6.1"/>
  <rect class="st2" x="229.3" y="295.8" width="6.1" height="6.1"/>
  <rect class="st2" x="229.3" y="256.5" width="6.1" height="6.1"/>
  <rect class="st2" x="215.9" y="116.7" width="6.1" height="6.1" transform="translate(-6.8 226.1) rotate(-53.9)"/>
  <rect class="st2" x="172.9" y="87.8" width="6.1" height="6.1" transform="translate(-1.1 179.5) rotate(-53.9)"/>
  <rect class="st2" x="124.5" y="89" width="6.1" height="6.1" transform="translate(-29.8 93.7) rotate(-36.4)"/>
  <rect class="st2" x="58.1" y="87.6" width="6.1" height="6.1" transform="translate(-41.9 54) rotate(-36.4)"/>
  <rect class="st2" x="35" y="15.3" width="6.1" height="6.1"/>
  <rect class="st2" x="32.2" y="53.5" width="6.1" height="6.1" transform="translate(-26.7 31.9) rotate(-36.4)"/>
  <rect class="st2" x="94.8" y="15.3" width="6.1" height="6.1"/>
  <rect class="st2" x="105" y="48.2" width="6.1" height="6.1"/>
  <rect class="st2" x="80.8" y="117.1" width="6.1" height="6.1" transform="translate(-54.9 73.2) rotate(-36.4)"/>
  <rect class="st2" x="98.3" y="144.7" width="6.1" height="6.1"/>
  <rect class="st2" x="98.3" y="247.5" width="6.1" height="6.1"/>
  <rect class="st2" x="124.9" y="295.8" width="6.1" height="6.1"/>
  <rect class="st2" x="198.8" y="247.5" width="6.1" height="6.1"/>
  <rect class="st2" x="198.8" y="144.7" width="6.1" height="6.1"/>
  <rect class="st2" x="236.1" y="87.3" width="6.1" height="6.1" transform="translate(25.2 230.4) rotate(-53.9)"/>
  <rect class="st2" x="259.7" y="53.6" width="6.1" height="6.1" transform="translate(62.2 235.5) rotate(-53.9)"/>
  <rect class="st2" x="197.6" y="15.3" width="6.1" height="6.1"/>
  <rect class="st2" x="255.8" y="15.3" width="6.1" height="6.1"/>
  <g>
    <rect class="st1" x="114.1" y="221.7" width="10.5" height="20.6"/>
    <rect x="116.8" y="226.8" width="5.2" height="11.1"/>
  </g>
  <g>
    <rect class="st1" x="180" y="221.7" width="10.5" height="20.6"/>
    <rect x="182.8" y="226.8" width="5.2" height="11.1"/>
  </g>
  <g>
    <rect class="st1" x="136" y="221.7" width="10.5" height="20.6"/>
    <rect x="138.8" y="226.8" width="5.2" height="11.1"/>
  </g>
  <g>
    <rect class="st1" x="158" y="221.7" width="10.5" height="20.6"/>
    <rect x="160.8" y="226.8" width="5.2" height="11.1"/>
  </g>
  <g>
    <rect class="st1" x="107.6" y="258" width="10.5" height="20.6"/>
    <rect x="110.4" y="263.1" width="5.2" height="11.1"/>
  </g>
  <circle cx="209.6" cy="86.7" r="3.4"/>
  <rect x="198.8" y="23.3" width="59" height="39.7"/>
  <rect class="st0" x="204.8" y="13.2" width="47.8" height="10.3"/>
  <g>
    <rect class="st1" x="11.1" y="41.1" width="10.2" height="6.9"/>
    <path class="st5" d="M15,41.7h2.5c1.5,0,2.8,1.3,2.8,2.8h0c0,1.5-1.3,2.8-2.8,2.8h-2.5c-1.5,0-2.8-1.3-2.8-2.8h0c0-1.5,1.3-2.8,2.8-2.8Z"/>
  </g>
  <g>
    <rect class="st1" x="25.2" y="41.1" width="10.2" height="6.9"/>
    <path class="st5" d="M29.1,41.7h2.5c1.5,0,2.8,1.3,2.8,2.8h0c0,1.5-1.3,2.8-2.8,2.8h-2.5c-1.5,0-2.8-1.3-2.8-2.8h0c0-1.5,1.3-2.8,2.8-2.8Z"/>
  </g>
  <circle cx="209.6" cy="95" r="3.4"/>
  <circle cx="203" cy="90.8" r="3.4"/>
  <circle cx="216.3" cy="90.8" r="3.4"/>
  <circle cx="205.2" cy="77.5" r="3.4"/>
  <circle cx="213.4" cy="77.5" r="3.4"/>
  <circle cx="220.7" cy="82.8" r="3.4"/>
  <circle cx="224.5" cy="90.9" r="3.4"/>
  <circle cx="213.4" cy="103.2" r="3.4"/>
  <circle cx="205.3" cy="103.2" r="3.4"/>
  <circle cx="220.1" cy="98.4" r="3.4"/>
  <circle cx="198.5" cy="82.8" r="3.4"/>
  <circle cx="197.7" cy="98.9" r="3.4"/>
  <circle cx="194.8" cy="90.8" r="3.4"/>
  <rect class="st3" x="204.2" y="27.5" width="49" height="31.2"/>
</svg>